# AST/ASF file generated using VICON BodyLanguage
# -----------------------------------------------
:version 1.10
:name VICON
:units
  mass 1.0
  length 0.45
  angle deg
:documentation
   .ast/.asf automatically generated from VICON data using
   VICON BodyBuilder and BodyLanguage model FoxedUp or BRILLIANT.MOD
:root
   order TX TY TZ RX RY RZ
   axis XYZ
   position 0 0 0  
   orientation 0 0 0 
:bonedata
  begin
     id 1 
     name lhipjoint
     direction 0.722297 -0.617336 0.311742 
     length 2.6635 
     axis 0 0 0  XYZ
  end
  begin
     id 2 
     name lfemur
     direction 0.34202 -0.939693 0  
     length 7.39349  
     axis 0 0 20  XYZ
    dof rx ry rz
    limits (-160.0 20.0)
           (-70.0 70.0)
           (-60.0 70.0)
  end
  begin
     id 3 
     name ltibia
     direction 0.34202 -0.939693 0   
     length 7.36294   
     axis 0 0 20   XYZ
    dof rx
    limits (-10.0 170.0)
  end
  begin
     id 4 
     name lfoot
     direction 0.104879 -0.288152 0.951824   
     length 2.16981   
     axis -90 7.62852e-016 20   XYZ
    dof rx rz
    limits (-45.0 90.0)
           (-70.0 20.0)
  end
  begin
     id 5 
     name ltoes
     direction 1.53586e-011 -4.21895e-011 1   
     length 1.08218   
     axis -90 7.62852e-016 20   XYZ
    dof rx
    limits (-90.0 20.0)
  end
  begin
     id 6 
     name rhipjoint
     direction -0.75102 -0.589393 0.297631   
     length 2.78977  
     axis 0 0 0  XYZ 
  end
  begin
     id 7 
     name rfemur
     direction -0.34202 -0.939693 0   
     length 7.46076   
     axis 0 0 -20   XYZ
    dof rx ry rz
    limits (-160.0 20.0)
           (-70.0 70.0)
           (-70.0 60.0)
  end
  begin
     id 8 
     name rtibia
     direction -0.34202 -0.939693 0   
     length 7.31726   
     axis 0 0 -20   XYZ
    dof rx
    limits (-10.0 170.0)
 end
 begin
     id 9 
     name rfoot
     direction -0.107991 -0.296704 0.948844   
     length 2.09388  
     axis -90 -7.62852e-016 -20   XYZ
    dof rx rz
    limits (-45.0 90.0)
           (-20.0 70.0)
  end
  begin
     id 10 
     name rtoes
     direction -1.53559e-011 -4.21911e-011 1   
     length 1.04433   
     axis -90 -7.62852e-016 -20   XYZ
    dof rx
    limits (-90.0 20.0)
  end
  begin
     id 11 
     name lowerback
     direction 0.0165164 0.98272 0.184358   
     length 1.71896   
     axis 0 0 0   XYZ
    dof rx ry rz
    limits (-20.0 45.0)
           (-30.0 30.0)
           (-30.0 30.0)
  end
  begin
     id 12 
     name upperback
     direction -0.00887249 0.992297 0.123566   
     length 1.71504   
     axis 0 0 0   XYZ
    dof rx ry rz
    limits (-20.0 45.0)
           (-30.0 30.0)
           (-30.0 30.0)
  end
  begin
     id 13 
     name thorax
     direction -0.0157026 0.998908 0.0440032   
     length 1.77022   
     axis 0 0 0   XYZ
    dof rx ry rz
    limits (-20.0 45.0)
           (-30.0 30.0)
           (-30.0 30.0)
  end
  begin
     id 14 
     name lowerneck
     direction -0.0238856 0.998137 0.0561411   
     length 1.89341   
     axis 0 0 0   XYZ
    dof rx ry rz
    limits (-20.0 45.0)
           (-30.0 30.0)
           (-30.0 30.0)
  end
  begin
     id 15 
     name upperneck
     direction 0.0276574 0.952253 -0.304056   
     length 1.86999   
     axis 0 0 0   XYZ
    dof rx ry rz
    limits (-20.0 45.0)
           (-30.0 30.0)
           (-30.0 30.0)
  end
  begin
     id 16
     name head
     direction 0.00800083 0.994258 -0.106712  
     length 1.91492  
     axis 0 0 0   XYZ
    dof rx ry rz
    limits (-20.0 45.0)
           (-30.0 30.0)
           (-30.0 30.0)
  end
  begin
     id 17 
     name lclavicle
     direction 0.97203 0.225407 0.06595  
     length 3.34889  
     axis 0 0 0   XYZ
    dof ry rz
    limits (-20.0 10.0)
           (0.0 20.0)
  end
  begin
     id 18 
     name lhumerus
     direction 1 -4.48973e-011 2.20267e-027   
     length 4.85645   
     axis 180 -30 -90   XYZ
    dof rx ry rz
    limits (-60.0 90.0)
           (-90.0 90.0)
           (-90.0 90.0)
  end
  begin
     id 19
     name lradius
     direction 1 -4.4897e-011 4.60472e-027   
     length 2.79874   
     axis 180 -30 -90   XYZ
    dof rx
    limits (-10.0 170.0)
  end
  begin
     id 20
     name lwrist
     direction 1 -4.48952e-011 1.14928e-026   
     length 1.39937   
     axis -6.29373e-015 90 90   XYZ
    dof ry
    limits (-180.0 0.0)
 end
  begin
     id 21 
     name lhand
     direction 1 -4.48967e-011 2.29886e-026   
     length 0.573398   
     axis -1.46689e-014 90 90   XYZ
    dof rx rz
    limits (-90.0 90.0)
           (-45.0 45.0)
  end
  begin
     id 22 
     name lfingers
     direction 1 -4.48955e-011 4.59726e-026   
     length 0.462289   
     axis -2.93383e-014 90 90   XYZ
    dof rx
    limits (0.0 90.0)
  end
  begin
     id 23
     name lthumb
     direction 0.707107 -6.34866e-011 0.707107   
     length 0.663757   
     axis -90 45 5.69224e-014   XYZ
    dof rx rz
    limits (-45.0 45.0)
           (-45.0 45.0)
  end
  begin
     id 24 
     name rclavicle
     direction -0.981571 0.157346 0.108443   
     length 3.35257  
     axis 0 0 0   XYZ 
    dof ry rz
    limits (-10.0 20.0)
           (-20.0 0.0)
  end
  begin
     id 25 
     name rhumerus
     direction -1 -4.48967e-011 8.58308e-029  
     length 4.67018   
     axis 180 30 90   XYZ
    dof rx ry rz
    limits (-90.0 60.0)
           (-90.0 90.0)
           (-90.0 90.0)
  end
  begin
     id 26 
     name rradius
     direction -1 -4.48958e-011 4.52548e-027   
     length 2.65534   
     axis 180 30 90   XYZ
    dof rx
    limits (-10.0 170.0)
  end
  begin
     id 27 
     name rwrist
     direction -1 -4.48977e-011 1.14952e-026   
     length 1.32767   
     axis -6.29373e-015 -90 -90   XYZ
    dof ry
    limits (-180.0 0.0)
  end
  begin
     id 28
     name rhand
     direction -1 -4.48924e-011 2.29804e-026   
     length 0.594069   
     axis -1.46689e-014 -90 -90   XYZ
    dof rx rz
    limits (-90.0 90.0)
           (-45.0 45.0)
  end
  begin
     id 29
     name rfingers
     direction -1 -4.48998e-011 4.59888e-026   
     length 0.478954   
     axis -2.93383e-014 -90 -90   XYZ
    dof rx
    limits (0.0 90.0)
  end
  begin
     id 30
     name rthumb
     direction -0.707107 -6.34933e-011 0.707107   
     length 0.687685   
     axis -90 -45 -5.69224e-014   XYZ
    dof rx rz
    limits (-45.0 45.0)
           (-45.0 45.0)
  end
:hierarchy
  begin
    root lhipjoint rhipjoint lowerback
    lhipjoint lfemur
    lfemur ltibia
    ltibia lfoot
    lfoot ltoes
    rhipjoint rfemur
    rfemur rtibia
    rtibia rfoot
    rfoot rtoes
    lowerback upperback
    upperback thorax
    thorax lowerneck lclavicle rclavicle
    lowerneck upperneck
    upperneck head
    lclavicle lhumerus
    lhumerus lradius
    lradius lwrist
    lwrist lhand lthumb
    lhand lfingers
    rclavicle rhumerus
    rhumerus rradius
    rradius rwrist
    rwrist rhand rthumb
    rhand rfingers
  end

#!OML:ASF E:\pregnant2\Project 1\Capture day 1\Session 1\pregnant2.ASF
:FULLY-SPECIFIED
:DEGREES
281
root 3.80805 17.1122 44.7856 29.5075 36.9943 -0.859293
lowerback -22.1657 7.44113 -0.225282
upperback -16.1957 10.4478 -6.9191
thorax -4.35379 5.3415 -5.43634
lowerneck -14.605 2.15741 3.45074
upperneck 32.6314 -0.921885 11.4437
head 13.6101 1.88433 3.90623
rclavicle -2.04748e-014 -5.725e-014
rhumerus 48.1211 69.3388 -39.556
rradius 60.1743
rwrist 1.50246
rhand -12.5973 -12.014
rfingers 7.12502
rthumb 13.4813 -41.5576
lclavicle -2.04748e-014 -5.725e-014
lhumerus -49.9274 6.01483 14.6695
lradius 36.1451
lwrist 6.32615
lhand -12.254 25.798
lfingers 7.12502
lthumb 13.8122 55.3194
rfemur -31.2061 8.38232 21.9649
rtibia 17.2481
rfoot -18.0911 -28.7638
rtoes 8.43247
lfemur -42.799 -21.1447 -7.66082
ltibia 22.0662
lfoot -8.56781 5.53535
ltoes -21.2472
282
root 3.80585 17.11 44.7925 29.4894 37.3708 -0.852882
lowerback -22.1319 7.48442 -0.207021
upperback -16.2189 10.5085 -6.97602
thorax -4.37753 5.37172 -5.50164
lowerneck -14.6943 1.97472 3.30083
upperneck 32.7091 -1.20145 11.5804
head 13.6828 1.77085 3.95568
rclavicle -2.0276e-013 1.59028e-014
rhumerus 51.0582 69.393 -37.3675
rradius 60.7982
rwrist 1.47021
rhand -12.8258 -12.0592
rfingers 7.12502
rthumb 13.2611 -41.6173
lclavicle -2.0276e-013 1.59028e-014
lhumerus -49.816 6.35092 13.8153
lradius 36.0391
lwrist 6.51394
lhand -12.3014 25.9091
lfingers 7.12502
lthumb 13.7665 55.4336
rfemur -31.1191 8.19472 22.1215
rtibia 17.2388
rfoot -18.2097 -28.8597
rtoes 8.51543
lfemur -42.896 -21.4007 -7.46509
ltibia 22.1141
lfoot -8.58591 5.49443
ltoes -21.2899
283
root 3.80357 17.1078 44.7993 29.4791 37.7489 -0.843856
lowerback -22.0978 7.52513 -0.190536
upperback -16.2439 10.5663 -7.03825
thorax -4.40297 5.40039 -5.57263
lowerneck -14.7817 1.79247 3.16179
upperneck 32.7733 -1.48338 11.719
head 13.7509 1.65744 4.00262
rclavicle 8.09054e-014 -2.8625e-014
rhumerus 53.9891 69.4095 -35.1856
rradius 61.4248
rwrist 1.44982
rhand -13.0505 -12.1383
rfingers 7.12502
rthumb 13.0445 -41.7104
lclavicle 8.09054e-014 -2.8625e-014
lhumerus -49.7061 6.66747 12.9739
lradius 35.936
lwrist 6.67528
lhand -12.2828 26.0097
lfingers 7.12502
lthumb 13.7845 55.533
rfemur -31.044 8.01747 22.2698
rtibia 17.2354
rfoot -18.3404 -28.9628
rtoes 8.62697
lfemur -43.0059 -21.6791 -7.25149
ltibia 22.1589
lfoot -8.59609 5.47535
ltoes -21.3364
284
root 3.80094 17.1053 44.8069 29.4895 38.1136 -0.822722
lowerback -22.1013 7.55657 -0.219282
upperback -16.2562 10.6197 -7.08694
thorax -4.40584 5.43125 -5.59934
lowerneck -14.8742 1.61132 3.01727
upperneck 32.8233 -1.75888 11.8469
head 13.8144 1.54396 4.04608
rclavicle -4.17448e-015 1.33583e-013
rhumerus 56.97 69.3839 -32.9286
rradius 62.0612
rwrist 1.43129
rhand -13.2632 -12.2557
rfingers 7.12502
rthumb 12.8395 -41.8408
lclavicle -4.17448e-015 1.33583e-013
lhumerus -49.6131 7.0044 12.1552
lradius 35.831
lwrist 6.78171
lhand -12.2287 26.094
lfingers 7.12502
lthumb 13.8366 55.6137
rfemur -30.9927 7.87707 22.3898
rtibia 17.2429
rfoot -18.489 -29.0898
rtoes 8.77087
lfemur -43.1277 -21.9498 -7.0433
ltibia 22.1969
lfoot -8.60215 5.45748
ltoes -21.3739
285
root 3.79817 17.1026 44.815 29.5138 38.4692 -0.798052
lowerback -22.147 7.57159 -0.286495
upperback -16.2499 10.6583 -7.109
thorax -4.37984 5.45883 -5.57218
lowerneck -14.9742 1.43909 2.86633
upperneck 32.8632 -2.01485 11.9582
head 13.8744 1.43523 4.08605
rclavicle -1.53661e-013 2.06736e-014
rhumerus 60.0863 69.3204 -30.5134
rradius 62.7156
rwrist 1.40752
rhand -13.4525 -12.4525
rfingers 7.12502
rthumb 12.657 -42.049
lclavicle -1.53661e-013 2.06736e-014
lhumerus -49.5665 7.37418 11.3483
lradius 35.7272
lwrist 6.83466
lhand -12.2456 26.157
lfingers 7.12502
lthumb 13.8203 55.6779
rfemur -30.9608 7.76116 22.4948
rtibia 17.2588
rfoot -18.6465 -29.2312
rtoes 8.93179
lfemur -43.2553 -22.1843 -6.85365
ltibia 22.2316
lfoot -8.61459 5.4114
ltoes -21.4144
286
root 3.79547 17.1 44.8232 29.5484 38.8193 -0.772553
lowerback -22.2205 7.58073 -0.37326
upperback -16.2315 10.6927 -7.11443
thorax -4.33349 5.48666 -5.51238
lowerneck -15.0725 1.26886 2.69561
upperneck 32.8868 -2.2597 12.0649
head 13.9265 1.32711 4.12785
rclavicle -6.89783e-014 9.54166e-015
rhumerus 63.265 69.2099 -27.9993
rradius 63.3945
rwrist 1.37255
rhand -13.6278 -12.674
rfingers 7.12502
rthumb 12.488 -42.2809
lclavicle -6.89783e-014 9.54166e-015
lhumerus -49.5488 7.76308 10.559
lradius 35.6236
lwrist 6.84821
lhand -12.4846 26.1512
lfingers 7.12502
lthumb 13.5899 55.6877
rfemur -30.943 7.65619 22.5923
rtibia 17.2791
rfoot -18.8088 -29.3759
rtoes 9.09891
lfemur -43.3864 -22.3799 -6.68408
ltibia 22.264
lfoot -8.63531 5.32942
ltoes -21.4508
287
root 3.79273 17.0974 44.8312 29.5857 39.173 -0.755933
lowerback -22.3154 7.57978 -0.468355
upperback -16.2012 10.7155 -7.09784
thorax -4.26988 5.51014 -5.42265
lowerneck -15.1723 1.10561 2.5134
upperneck 32.8999 -2.48712 12.1609
head 13.9735 1.22282 4.16891
rclavicle 1.23246e-014 -7.31528e-014
rhumerus 66.5145 69.0499 -25.3873
rradius 64.0922
rwrist 1.33057
rhand -13.7961 -12.9304
rfingers 7.12502
rthumb 12.3257 -42.5471
lclavicle 1.23246e-014 -7.31528e-014
lhumerus -49.5734 8.18186 9.7705
lradius 35.5215
lwrist 6.83528
lhand -12.803 26.095
lfingers 7.12502
lthumb 13.2831 55.6517
rfemur -30.9338 7.55295 22.6966
rtibia 17.2964
rfoot -18.971 -29.5203
rtoes 9.26929
lfemur -43.5222 -22.5275 -6.53178
ltibia 22.2991
lfoot -8.67049 5.19662
ltoes -21.4825
288
root 3.79045 17.095 44.8389 29.6198 39.5268 -0.743157
lowerback -22.3856 7.58784 -0.540153
upperback -16.1817 10.7462 -7.09187
thorax -4.22405 5.53518 -5.35971
lowerneck -15.263 0.938994 2.32407
upperneck 32.9056 -2.71963 12.2691
head 14.017 1.11674 4.21478
rclavicle 4.7112e-014 -1.27222e-014
rhumerus 69.6454 68.8487 -22.8815
rradius 64.795
rwrist 1.29374
rhand -13.9529 -13.1647
rfingers 7.12502
rthumb 12.1745 -42.7904
lclavicle 4.7112e-014 -1.27222e-014
lhumerus -49.5962 8.58348 8.98239
lradius 35.4156
lwrist 6.81077
lhand -13.1724 25.993
lfingers 7.12502
lthumb 12.927 55.5726
rfemur -30.9194 7.43398 22.8091
rtibia 17.3067
rfoot -19.1238 -29.6492
rtoes 9.42153
lfemur -43.6538 -22.6526 -6.39377
ltibia 22.3388
lfoot -8.72644 5.03387
ltoes -21.5349
289
root 3.7884 17.0927 44.8463 29.652 39.8855 -0.736502
lowerback -22.4298 7.60365 -0.591458
upperback -16.1785 10.7836 -7.09559
thorax -4.20385 5.56161 -5.32235
lowerneck -15.335 0.766098 2.12482
upperneck 32.9045 -2.95974 12.3896
head 14.0552 1.00729 4.26541
rclavicle 7.23576e-014 1.59028e-015
rhumerus 72.6087 68.6189 -20.5331
rradius 65.494
rwrist 1.26591
rhand -14.0943 -13.3783
rfingers 7.12502
rthumb 12.0382 -43.012
lclavicle 7.23576e-014 1.59028e-015
lhumerus -49.6132 8.95169 8.20122
lradius 35.3063
lwrist 6.79543
lhand -13.4856 25.8789
lfingers 7.12502
lthumb 12.6251 55.4774
rfemur -30.9036 7.30552 22.9302
rtibia 17.3093
rfoot -19.2714 -29.7713
rtoes 9.56876
lfemur -43.793 -22.7793 -6.24755
ltibia 22.3845
lfoot -8.78978 4.86731
ltoes -21.5872
290
root 3.7867 17.0904 44.8535 29.6759 40.2471 -0.735172
lowerback -22.4614 7.62066 -0.638303
upperback -16.1786 10.8215 -7.0925
thorax -4.19406 5.58818 -5.2822
lowerneck -15.3932 0.590985 1.90976
upperneck 32.896 -3.19745 12.5131
head 14.088 0.896607 4.31961
rclavicle 8.90555e-014 4.92986e-014
rhumerus 75.4512 68.3624 -18.2938
rradius 66.1771
rwrist 1.2517
rhand -14.2326 -13.5808
rfingers 7.12502
rthumb 11.9048 -43.2223
lclavicle 8.90555e-014 4.92986e-014
lhumerus -49.6422 9.31222 7.43289
lradius 35.188
lwrist 6.78246
lhand -13.6807 25.7842
lfingers 7.12502
lthumb 12.437 55.3942
rfemur -30.8801 7.16949 23.0593
rtibia 17.3083
rfoot -19.4192 -29.8869
rtoes 9.71077
lfemur -43.9279 -22.9059 -6.10079
ltibia 22.4338
lfoot -8.86262 4.69292
ltoes -21.6552
291
root 3.78523 17.0881 44.8604 29.7012 40.6092 -0.732008
lowerback -22.488 7.63761 -0.685124
upperback -16.1803 10.8594 -7.08823
thorax -4.1889 5.61472 -5.24176
lowerneck -15.4443 0.41516 1.68777
upperneck 32.8836 -3.43363 12.6383
head 14.1184 0.785584 4.37557
rclavicle -4.6118e-014 3.18055e-015
rhumerus 78.1681 68.0797 -16.1789
rradius 66.8355
rwrist 1.2573
rhand -14.3733 -13.7658
rfingers 7.12502
rthumb 11.7692 -43.4152
lclavicle -4.6118e-014 3.18055e-015
lhumerus -49.6752 9.66189 6.67513
lradius 35.061
lwrist 6.79386
lhand -13.7098 25.7775
lfingers 7.12502
lthumb 12.4089 55.3892
rfemur -30.8576 7.02958 23.1874
rtibia 17.3073
rfoot -19.5646 -30.0009
rtoes 9.84601
lfemur -44.0645 -23.0304 -5.95745
ltibia 22.4854
lfoot -8.94205 4.50994
ltoes -21.7296
292
root 3.78382 17.0856 44.8673 29.7319 40.9675 -0.7241
lowerback -22.5217 7.65246 -0.741448
upperback -16.1797 10.8962 -7.08322
thorax -4.17968 5.64153 -5.19447
lowerneck -15.4929 0.240919 1.47085
upperneck 32.8692 -3.66651 12.7572
head 14.1481 0.675601 4.42831
rclavicle 2.28602e-014 -4.45278e-014
rhumerus 80.772 67.771 -14.1811
rradius 67.4662
rwrist 1.28319
rhand -14.5187 -13.9173
rfingers 7.12502
rthumb 11.6289 -43.5746
lclavicle 2.28602e-014 -4.45278e-014
lhumerus -49.7103 10.0184 5.91997
lradius 34.9241
lwrist 6.81947
lhand -13.6025 25.877
lfingers 7.12502
lthumb 12.5123 55.4823
rfemur -30.8407 6.9008 23.3063
rtibia 17.3091
rfoot -19.7185 -30.1227
rtoes 9.99882
lfemur -44.2099 -23.1825 -5.79735
ltibia 22.536
lfoot -9.00854 4.35749
ltoes -21.8006
293
root 3.78239 17.0829 44.8743 29.7672 41.3195 -0.712224
lowerback -22.569 7.65804 -0.809849
upperback -16.1708 10.9231 -7.07198
thorax -4.15857 5.6643 -5.13332
lowerneck -15.5485 0.0748486 1.26562
upperneck 32.8564 -3.8892 12.8685
head 14.18 0.570606 4.47763
rclavicle -2.26615e-014 -5.40694e-014
rhumerus 83.3445 67.4293 -12.227
rradius 68.0801
rwrist 1.31799
rhand -14.6704 -14.0924
rfingers 7.12502
rthumb 11.4826 -43.7579
lclavicle -2.26615e-014 -5.40694e-014
lhumerus -49.7641 10.3919 5.15248
lradius 34.7792
lwrist 6.86136
lhand -13.4305 26.0968
lfingers 7.12502
lthumb 12.6782 55.692
rfemur -30.8295 6.78811 23.4146
rtibia 17.3148
rfoot -19.8786 -30.2548
rtoes 10.1658
lfemur -44.357 -23.3381 -5.63633
ltibia 22.5834
lfoot -9.06498 4.21582
ltoes -21.871
